<svg width="48" height="47" viewBox="0 0 48 47" fill="none" xmlns="http://www.w3.org/2000/svg">
<path d="M24 0.5C27.0857 0.5 30.1412 1.10996 32.9922 2.29492C35.8432 3.47996 38.434 5.21738 40.6162 7.40723C42.7984 9.59699 44.5298 12.1964 45.7109 15.0576C46.892 17.9189 47.4999 20.9859 47.5 24.083C47.5 34.4921 40.7978 43.3024 31.4873 46.4746C31.0136 46.5514 30.7993 46.432 30.6973 46.3311C30.5732 46.208 30.5001 45.9999 30.5 45.7588V39.1592C30.4999 37.3692 30.0169 36.0059 29.3496 35.0771C31.7613 34.7236 34.2219 34.0138 36.1553 32.3994C38.3685 30.5513 39.8115 27.5887 39.8115 22.8789C39.8114 20.1961 38.9295 18.0069 37.4102 16.2441C37.7367 15.2722 38.2962 12.843 37.0635 9.80664L36.9756 9.59082L36.7539 9.51855L36.6143 9.94824C36.7448 9.54326 36.7529 9.52004 36.7529 9.51855H36.752L36.749 9.51758C36.7475 9.51712 36.7459 9.51615 36.7441 9.51562C36.7407 9.51459 36.7367 9.51394 36.7324 9.5127C36.7233 9.51006 36.7115 9.50627 36.6982 9.50293C36.6718 9.49628 36.6374 9.48827 36.5947 9.48047C36.5088 9.46476 36.3897 9.44965 36.2373 9.44238C35.9321 9.42784 35.4938 9.44723 34.916 9.56836C33.7927 9.80391 32.145 10.4226 29.9092 11.9111C28.0285 11.4091 26.0017 11.1562 24 11.1562C21.998 11.1562 19.9708 11.4089 18.0898 11.9111C15.8544 10.423 14.2072 9.80389 13.084 9.56836C12.5062 9.44723 12.0679 9.42784 11.7627 9.44238C11.6103 9.44965 11.4912 9.46476 11.4053 9.48047C11.3626 9.48827 11.3282 9.49628 11.3018 9.50293C11.2885 9.50627 11.2767 9.51006 11.2676 9.5127C11.2633 9.51394 11.2593 9.51459 11.2559 9.51562C11.2541 9.51615 11.2525 9.51712 11.251 9.51758L11.248 9.51855H11.2471C11.2471 9.52009 11.2555 9.54505 11.4004 9.99414L11.2461 9.51855L11.0244 9.59082L10.9365 9.80664C9.70394 12.8427 10.2623 15.272 10.5889 16.2441C9.06979 18.0068 8.18855 20.1964 8.18848 22.8789C8.18848 27.5763 9.62538 30.5444 11.8281 32.4014C13.757 34.0273 16.213 34.7482 18.6201 35.1035C18.1812 35.7342 17.8259 36.5647 17.6455 37.5977C16.9724 37.8558 15.9676 38.1393 14.917 38.0479C13.7596 37.947 12.5063 37.3909 11.5479 35.7129V35.7109C11.5467 35.709 11.5447 35.7062 11.543 35.7031C11.5395 35.697 11.5351 35.6887 11.5293 35.6787C11.5172 35.658 11.4998 35.6287 11.4775 35.5928C11.433 35.5211 11.3674 35.421 11.2822 35.3018C11.1122 35.0639 10.8593 34.7456 10.5244 34.4209C9.85762 33.7745 8.8338 33.073 7.47461 32.9775L7.46289 32.9766H7.4502V32.9756H7.41406C7.39356 32.9756 7.36478 32.9756 7.33008 32.9766C7.261 32.9784 7.16485 32.9832 7.05664 32.9941C6.86009 33.014 6.54701 33.0615 6.29492 33.2012C6.16375 33.2739 5.99989 33.3983 5.9082 33.6045C5.80936 33.8269 5.83127 34.0588 5.91602 34.2598C5.99544 34.4481 6.13424 34.6222 6.30273 34.7871C6.47503 34.9557 6.70248 35.1372 6.99023 35.334L7.02148 35.3555L7.05273 35.3701L7.05664 35.373C7.06261 35.3762 7.07436 35.3821 7.09082 35.3916C7.124 35.4108 7.17821 35.4436 7.24805 35.4922C7.38762 35.5892 7.5932 35.7498 7.83398 35.9941C8.3131 36.4804 8.93881 37.3045 9.46484 38.6299C9.46892 38.6423 9.47506 38.6599 9.48242 38.6807C9.49713 38.7222 9.51858 38.7799 9.54785 38.8506C9.6065 38.9923 9.69643 39.1882 9.82617 39.416C10.0856 39.8715 10.5072 40.461 11.1553 41.001C12.3933 42.0324 14.3922 42.8271 17.5 42.2939V45.7588C17.4999 45.9986 17.4274 46.2006 17.3057 46.3213C17.2043 46.4218 16.9931 46.5396 16.5303 46.4727C7.22343 43.3226 0.5 34.4901 0.5 24.083C0.500112 17.8279 2.97666 11.8297 7.38379 7.40723C9.56604 5.21738 12.1568 3.47996 15.0078 2.29492C17.8588 1.10996 20.9143 0.5 24 0.5Z" stroke="black"/>
</svg>
